# xmcd
#
# Track frame offsets:
#	150
#	14070
#	29272
#	45495
#	65380
#	81860
#	97662
#	121155
#	134035
#	150282
#	165617
#	182355
#	201305
#	228792
#	251137
#
# Disc length: 3397 seconds
#
# Revision: 1
# Processed by: cddbd v1.5.2PL0 Copyright (c) Steve Scherf et al.
# Submitted via: audiograbber 1.83.01
#
DISCID=b80d430f
DTITLE=Black Connection - Movin'on
DYEAR=1999
DGENRE=Blues
TTITLE0=Respect
TTITLE1=I feel good
TTITLE2=Flip, flop and fly
TTITLE3=Lascia stare la mia ragazza
TTITLE4=Love the one you're with
TTITLE5=Let me love you baby
TTITLE6=When a man loves a woman
TTITLE7=Hit the road Jack
TTITLE8=Hang on Sloopy
TTITLE9=Please, please, please
TTITLE10=Caledonia
TTITLE11=Breakin up somebody's home
TTITLE12=A change is gonna come
TTITLE13=Long train running
TTITLE14=Can't turn you loose
EXTD=
EXTT0=
EXTT1=
EXTT2=
EXTT3=
EXTT4=
EXTT5=
EXTT6=
EXTT7=
EXTT8=
EXTT9=
EXTT10=
EXTT11=
EXTT12=
EXTT13=
EXTT14=
PLAYORDER=
